<svg xmlns="http://www.w3.org/2000/svg" width="900" height="350" style="width:100%;height:100%;content-visibility:visible" viewBox="0 0 900 350"><defs><clipPath id="a"><path d="M0 0h900v350H0z"/></clipPath></defs><g clip-path="url(#a)"><g display="block"><path fill="#A88BBB" d="m679.4 271.807-123.527 68.709 265.22.871-141.693-69.58z"/><path fill="#7D648C" d="m679.4 271.807-123.527 68.709h85.656l81.969-10.983 43.083 9.329 54.512 2.525-141.693-69.58z"/><path fill="#5C3F4D" d="m806.156 187.434 3.806 6.226 6.313 85.804-26.119-3.581V235.05l16-47.616z"/><path fill="#B58B9F" d="m813.05 200.253 9 66.188-11.505 8.219.706-10.794-12.409-61.666 14.208-1.947z"/><path fill="#5C3F4D" d="m777.655 177.072 8.304 12.12 13.696 4.468 3-4.39-25-12.198z"/><path fill="#785667" d="m773.421 162.265-3.174 3.027 10.326 22.142 5.386 1.758-3.205-35.134-9.333 8.207zM835.781 180.152l-6.876 12.69-22.5 10.9v-7.897l4.141-4.597 25.235-11.096z"/><path fill="#B58B9F" d="m843.655 163.179 1.009 6.891-6.759 15.783-9 6.989 6.875-30.578 7.875.915z"/><path fill="#785667" d="m806.405 166.721 15.032-5.604-15.032 42.626-16.25 72.14-13.907-11.994 23.407-70.228 6.75-26.94z"/><path fill="#996A81" d="m802.655 142.824 24.25 3.889-20.5 57.029-6.75-10.082 3-50.836z"/><path fill="#614D6B" d="m809.096 131.42-28.501 6.135 7.061 20.261 14.382-4.787 42.626 17.041 53.531-25.073-53.789-18.619-35.31 5.042z"/><path fill="#614D6B" d="m759.489 137.254-35.992 7.572 46.75 20.466 31.792-12.262-11.883-13.603-30.667-2.173z"/><path fill="#937AA2" d="m788.405 136.243-31-9.864-33.908 18.448 66.658-5.399-1.75-3.185zM873.076 127.947l6.329 7.391 18.789 9.66-54.289 8.033-53.75-13.603 28.25-21.301 54.671 9.82z"/><path fill="#A88BBB" d="m792.577 105.817-36.325 13.955-4.425 9.643 38.328 10.012 39.75-18.559 10-15.559h-34.75l-12.578.508z"/><path fill="#614D6B" d="m835.78 107.386 12.8.874 24.929 11.512 5.896 15.566-49.5-14.47-3-11.933 8.875-1.549z"/><path fill="#A88BBB" d="m786.406 113.975-16.158-14.063 28.596-16.115 46.57 13.33-35.008 8.045-24 8.803z"/><path fill="#937AA2" d="m845.414 97.127-23.364-2.265-11.645 10.309-5.25 2.319 21.75 1.445 46.604 10.837-28.095-22.645z"/><path fill="#7D648C" d="m822.05 94.862 4.855 14.073-70.653 10.837 13.995-19.86 51.803-5.05z"/><path fill="#DEDEDC" d="m406.16 190.523 108.77-9.196 147.784 40.248-94.877 42.314-170.691-37.704 9.014-35.662z"/><path fill="#ECECEB" d="m531.803 233.801-16.873-52.475 147.783 40.249-94.876 42.314-170.69-37.704 134.656 7.616z"/><g fill="#ECECEB"><path d="m279.71 213.698 44.303-16.076 75.289-21.582 68.81 19.841-82.089 35.055-106.313-17.238z"/><path d="m279.71 213.698 44.303-16.076 75.289-21.582 68.81 19.841-82.089 35.055-106.313-17.238z"/></g><path fill="#DEDEDC" d="m279.711 213.698 44.303-16.076 75.289-21.582-21.464 34.626 8.185 20.27-106.313-17.238z"/><path fill="#D0CFCE" d="m755.497 270.445 65.596 70.94 77.101-41.245-36.767-26.038-89.513-.584-16.417-3.073z"/><path fill="#996A81" d="m31.747 217.689 20-5.466 7.898 48.747-4.288 7.311-16.435-27.046-7.175-17.292v-6.254z"/><path fill="#D2A4BA" d="m7.747 245.381 22.662-38.137 21.338 4.98-44 33.157z"/><path fill="#B58B9F" d="m44.32 247.296 6.359-1.293 5.095 24.263-3.024 3.149-13.828-23.271 5.398-2.848z"/><path fill="#937AA2" d="M52.75 273.414 1 278.365l21.997 53.634 170.934 18 361.941-9.484 79.408-58.989-25.763-9.905-19.852-19.489-3.809-10.199-141.281 8.274-31.749-17.156L52.75 273.414z"/><path fill="#7D648C" d="m635.281 281.526-25.764-9.904-19.852-19.491-3.81-10.198-141.28 8.274-31.749-17.155L52.75 273.414l-1.003 36.652 72.42 26.044 201.151 7.042 123.583-20.963 106.971 18.326 79.409-58.989z"/><path fill="#C5C5C5" d="m443.868 235.465 3.224-33.489-111.184-.813-29.655-3.002-41.424 1.41-61.282 6.567 20.779 77.925 154.134-17.945 65.408-30.653z"/><path fill="#A5A5A5" d="m220.33 160.054 15.299 1.059 5.601 69.823-41.397-17.238 2.245-50.131 18.252-3.513z"/><path fill="#929292" d="m212.948 161.113 3.714 8.865-4.973 59.285-37.027-6.527 1.667-55.859 30.333-5.764h6.286z"/><path fill="#DEDEDC" d="m205.351 156.436 30.278 4.677-18.966 8.865-34.334-7.299 23.022-6.243z"/><path fill="#C5C5C5" d="m106.566 99.555 39-3.988 5.124 119.893-71.124 17.065 27-132.97z"/><path fill="#C5C5C5" d="m98.899 102.816-19.333 3.293L52.75 273.415l32.726 13.933 22.11-68.556-1.02-40.763 7.746-61.801-15.413-13.412zM145.315 125.49l48.616 2.838-4.602 124.558-65.162-35.196 21.148-92.2z"/><path fill="#A5A5A5" d="m141.065 125.786-15.5 3.24-11.253 65.499 32.965 5.046 16.692 7.351-5.602-66.802-17.302-14.334z"/><path fill="#C5C5C5" d="m91.566 274.872 23.561 24.875h23.526l8.913-31.215 5.77-61.288v-36.061l-34.34 8.842-27.43 94.847z"/><path fill="#A5A5A5" d="m124.966 168.654-28.993-3.696-10.496 122.39 29.651 12.4 15.937-119.334-6.099-11.76z"/><path fill="#D0CFCE" d="m154.565 210.726-7.289-11.155 23.386-13.752 34 5.287-13.716 27.937-36.381-8.317z"/><path fill="#A5A5A5" d="m163.969 238.715 8.095-32.235 32.597-15.375 6.242 69.754-11.908 43.963h-26.667l-8.359-66.107z"/><path fill="#929292" d="m172.328 304.823-33.675-5.076 8.624-100.176 24.787 6.91.264 98.342z"/><path fill="#DEDEDC" d="m153.337 171.184-36.771-12.151-20.593 5.924 35.092 15.458 22.272-9.231zM145.565 121.28l-20 7.745 32.802 11.095 35.564-11.792-48.366-7.048zM79.565 106.109l34.747 10.119 31.253-20.661-42.125-1.595-23.875 12.137zM193.931 210.665l20.112-9.469 32.153 6.047-10.567 21.996-9.3-14.257-23.371 22.796-9.027-27.113z"/><path fill="#C5C5C5" d="m172.329 304.823 21.602-94.158 32.398 4.318-2.003 107.364-51.997-17.524z"/><path fill="#A5A5A5" d="m226.329 214.983 19.867-7.739 8.524 61.037-3.071 36.542-27.323 17.525 2.003-107.365z"/><path fill="#D0CFCE" d="m534.61 273.449-29.21 18.077-64.725 3.289-59.445-23.825-1.906-34.576 67.766-34.437 101.612 20.512 33.75 13.925-47.842 37.035z"/><path fill="#C5C5C5" d="m440.675 294.814 106.134 33.72 84.883-31.706 44.008-53.906-24.857-18.802-102.142-1.632-108.026 72.326z"/><path fill="#D0CFCE" d="m723.747 316.055-163.756-1.718 108.122-105.81 32.445 19.413 77.966 29.12.909 19.509-52.798 23.571-2.888 15.915z"/><path fill="#785667" d="m271.418 268.532-16.699-.25-30.394 54.066L327.709 332l-4.569-47.068-51.722-16.4z"/><path fill="#B58B9F" d="m314.314 260.137-8.062-6.24-13.675-.74-3.037-4.211-5.596 6.228-29.224 13.107 56.957 17.323 2.637-25.467z"/><path fill="#996A81" d="M372.327 279.365 357.93 317.84 327.709 332l-16.033-46.395 7.901-24.054 61.653-1.414-8.903 19.228z"/><path fill="#785667" d="m364.826 257.724-3.642 10.557-3.254 49.558 55.302 4.509 27.442-27.534-34.515-42.466-41.333 5.376z"/><path fill="#996A81" d="m364.827 257.724-3.642 10.557 52.047 54.067 27.443-27.534-34.515-42.466-41.333 5.376z"/><path fill="#785667" d="m292.577 253.157 19.1 32.447 17.275-17.559 11.077-10.488-20.452-23.121-27 18.721z"/><path fill="#B58B9F" d="m319.576 234.436 9.375 33.609 32.234.237 44.975-15.934-26.836-15.934-59.748-1.978z"/><path fill="#D2A4BA" d="m29.792 264.556 9.129-23.32 11.757 4.768-20.886 18.552z"/><path fill="#C5C5C5" d="m861.427 274.102-82.902-17.043-51.89 43.082 75.403 8.299 59.389-34.338z"/><path fill="#3B3C3B" d="m811.253 263.867-10.541-2.192-74.076-6.551-32.708 7.095 65.56 19.882 51.765-18.234z" opacity=".1"/><path fill="#929292" d="m736.247 306.719-12.5 9.336-167.875 24.461-9.063-11.982 13.182-14.197 166.644-14.197 9.612 6.579z"/><path fill="#9FA3A4" d="m821.093 341.386-97.346-25.331 2.888-15.915 75.403 8.3 19.055 32.946z"/><path fill="#88898A" d="m440.675 294.815 119.316 19.523-4.119 26.177-115.197-45.7z"/><path fill="#A5A5A5" d="m749.246 244.5-24.099 2.753-11.28 16.084 45.621 9.528 15.107-26.479-25.349-1.886z"/><path fill="#DEDEDC" d="m737.917 241.894 44.838 2.475-6.855 8.276-13.541 2.479-37.211-7.871 12.769-5.359z"/><path fill="#C5C5C5" d="m782.754 244.369-20.397 10.755-2.87 17.741 40.864-11.107-17.597-17.389z"/><path fill="#A5A5A5" d="m108.867 281.223-29.86 3.708-13.977 21.658 56.528 12.83 18.718-35.655-31.409-2.541z"/><path fill="#DEDEDC" d="m118.645 273.415 31.74 7.633-8.493 11.144-16.777 3.338-46.108-10.599 39.638-11.516z"/><path fill="#C5C5C5" d="m150.386 281.047-25.271 14.482-3.557 23.89 50.632-14.956-21.804-23.416z"/><path fill="#3B3C3B" d="m90.709 284.048 25.052-2.268 15.304 6.137-18.732 2.18-21.624-6.049z" opacity=".1"/><path fill="#A88BBB" d="M105.138 248.897v11.236l-2.93 23.916h7.376l-2.333-33.155-2.113-1.997z"/><path fill="#7D648C" d="m102.722 233.665-10.35 5.241 12.765 21.227 12.765-15.29-15.18-11.178z"/><path fill="#A88BBB" d="m104.68 222.488-12.308 16.417 25.53 5.937-13.222-22.354zM120.339 262.624l-.725 7.278.354 15.678-4.777-.474 3.65-21.325 1.498-1.157z"/><path fill="#7D648C" d="m122.886 252.913 6.366 4.061-9.638 12.929-7.282-10.727 10.554-6.263z"/><path fill="#A88BBB" d="m122.34 245.548 6.913 11.425-16.92 2.203 10.007-13.628z"/><path fill="#3B3C3B" d="m847.146 306.74 9.705-1.755 12.741 3.83-13.819.398-8.627-2.473z" opacity=".1"/><path fill="#A88BBB" d="M856.366 284.278v7.18l-1.872 15.282h4.714l-1.49-21.187-1.352-1.275z"/><path fill="#7D648C" d="m854.823 274.542-6.614 3.35 8.156 13.566 8.159-9.771-9.701-7.145z"/><path fill="#937AA2" d="m856.075 267.4-7.866 10.492 16.315 3.794-8.449-14.286z"/><path fill="#3B3C3B" d="m790.917 295.909 8.617-2.771 11.311 4.612-11.311 1.712-8.617-3.553z" opacity=".1"/><path fill="#A88BBB" d="M800.452 277.57v5.163L798.79 296.3h4.183l-1.322-17.599-1.199-1.131z"/><path fill="#7D648C" d="m799.08 267.716-5.871 2.972 7.242 12.044 7.242-8.675-8.613-6.341z"/><path fill="#937AA2" d="m800.191 261.374-6.982 9.314 14.484 3.37-7.502-12.684z"/><path fill="#3B3C3B" d="m838.462 282.712-6.191-1.99-8.127 3.312 8.127 1.23 6.191-2.552z" opacity=".1"/><path fill="#A88BBB" d="M831.611 269.536v3.708l1.194 9.75h-3.006l.951-12.645.861-.813z"/><path fill="#7D648C" d="m832.596 262.455 4.219 2.137-5.204 8.653-5.203-6.233 6.188-4.557z"/><path fill="#937AA2" d="m831.798 257.899 5.018 6.692-10.408 2.42 5.39-9.112z"/><path fill="#A88BBB" d="m704.975 335.491 19.434-2.812 24.065 5.622h-11.533l-11.98-2.81-18.206 2.172-1.78-2.172z"/></g><g display="block" opacity=".1"><path fill="#3B3C3B" d="m409.507 247.186 53.681-4.709 42.846 9.864-40.819 10.177-55.708-15.332zM512.109 264.371l52.292-4.148 44.646 10.813-43.801 8.915-53.137-15.58zM621.119 284.506l52.435-4.965 44.595 13.067-40.478 9.382-56.552-17.484zM373.967 248.363l-44.646 8.708-23.068 21.294-39.676-8.995 28.486-12.411 24.514-13.382h13.497l40.893 4.786z" opacity="1"/></g><g display="block"><path fill="#A88BBB" d="m27.803 287.348 17 28.708 46.762 9.484v3.994l-51.985-9.235-15.539-32.951h3.762z"/><path fill="#A88BBB" d="m20.246 295.531 13.295 26.817 24.569 4.191-.308 2.994-29.242-3.993-12.314-29.472 4-.537zM407.497 334.276l40.75-5.741 29.267 3.994-2.864 1.179-24.403-2.761-34.625 4.952-8.125-1.623z"/><path fill="#A88BBB" d="m435.632 335.53 14.298-2.821 31.316 4.313-3 1.331-27.595-3.773-11.2 2.144-3.819-1.194z"/></g><g display="block"><path fill="#DEDEDC" d="m200.127 50.806-37.955-17.048-27.787 7.744-82.518-11.833-42.3 19.443L118.08 62.803l19.944-3.058 25.441 6.518 36.662-15.457z"/><path fill="#D0CFCE" d="M70.477 74.126 9.567 49.113l93.633-2.149 61.541 8.431 35.386-4.588-33.768 19.884-59.665-10.087-36.217 13.522z"/><path fill="#DEDEDC" d="M698.304 0 622.14 22.548l136.875 17.269 25.156-3.856 32.092 8.22 46.243-19.497-47.875-21.503-35.049 9.768L698.304 0z"/><path fill="#D0CFCE" d="M702.637 43.566 622.14 22.548l118.105-2.71 77.625 10.635 44.636-5.788-61.555 32.901-56.298-20.542-42.016 6.522z"/></g><g display="block"><path fill="#A88BBB" d="m263.238 134.917-18.178 8.393 23.148 15.975-1.296-23.121-3.674-1.247z"/><path fill="#7D648C" d="m245.061 143.31-1.492 15.975 27.168 5.011-4.409-10.326-21.267-10.66z"/><path fill="#B58B9F" d="m266.089 161.237-22.521-1.953-2.337 25.028 29.506-6.614-4.648-16.461z"/><path fill="#996A81" d="m265.62 175.537-24.388 8.775 23.597 15.259 3.379-13.55-2.588-10.484z"/></g><path fill="#996A81" d="m335.261 118.001 13.888-10.959 3.158-2.115 7.589 5.684 1.291 10.351-15.021 15.676-11.219-2.634.314-16.003z" display="block"/><path fill="#B58B9F" d="m335.26 118.002 10.905 18.636-23.48 20.31.314-33.147 12.261-5.799z" display="block"/><g display="block"><path fill="#785667" d="m356.443 100.753 7.038 2.827 3.232 10.204-3.908 5.443-1.619 1.734-12.037-13.92 7.294-6.288z"/><path fill="#C49B7F" d="m370.157 95.565 6.585.331.506 14.961.593 1.9-8.622 1.954-3.766-1.954-2.59-10.905 7.294-6.287z"/><path fill="#996A81" d="m370.737 94.275-6.195-.458-1.679 22.597 3.667 1.105 2.583-1.389 1.624-21.855z"/><path fill="#C5C5C5" d="m370.896 92.102 3.517-46.358-1.673-26.458-5.011-10.102.518 37.445-3.546 45.015 6.195.458z"/><path fill="#929292" d="m370.897 92.102-2.226-11.986-3.97 11.527 2.882 1.597 3.314-1.138z"/><path fill="#C5C5C5" d="m368.843 119.77-6.039-.543.059-2.812 6.771-1.989 7.285-4.02 2.164-5.825.631-7.55-27.374-2.023.316-4.256 30.286 2.241-.926 10.388 1.142 8.913-14.315 7.476z"/><path fill="#A5A5A5" d="m376.919 110.405 6.24 1.888-.217-19.3-3.228 4.038-2.795 13.374z"/><path fill="#DFBEA7" d="m356.443 100.754 4.743-5.606 9.71-3.046 2.985 4.499-6.515 3.775-4.002 9.294-6.921-8.916z"/></g><path fill="#937AA2" d="m324.014 197.623 11.893 3.541.629 18.184-16.959 3.337-16.919.05-11.256-5.734 24.684-25.894 7.928 6.516z" display="block"/><path fill="#785667" d="m335.907 201.164-16.331 21.521 9.376 11.805 10.304 2.332 4.632-5.64-7.981-30.018z" display="block"/><g display="block"><path fill="#996A81" d="m343.887 231.182 19.787 12.803-14.241 2.165-20.482-2.165v-9.495l14.936-3.308z"/><path fill="#785667" d="M328.951 248.312h12.576l1.161-2.289 7.068 2.289h13.918v-4.328h-34.723v4.328z"/></g><path fill="#5C3F4D" d="m259.811 224.738 16.151 4.501 11.689-23.087-11.462-.013-16.378 18.599z" display="block"/><g display="block"><path fill="#A88BBB" d="m304.269 219.393-4.937 14.409-9.793 3.07-13.526-1.024-7.108-30.293 17.972-15.031 11.71 21.941 5.682 6.928z"/><path fill="#785667" d="m276.013 235.848 4.604 19.327 10.023 1.785 2.153-4.074 6.54-19.084-23.32 2.046z"/><path fill="#7D648C" d="m315.04 194.524-10.771 24.871-32.851-21.732 30.549-12.054 13.073 8.915z"/><path fill="#996A81" d="m292.794 252.885 6.539 13.233-9.441 2.413-13.073-2.413 3.799-10.944 12.176-2.289z"/><path fill="#785667" d="M276.819 270.445h22.514v-4.326h-22.514v4.326z"/></g><g display="block"><path fill="#937AA2" d="m307.123 137.284-3.551 1.07-5.569 8.36-.538 20.745 4.502 18.15 13.072 8.915-1.35-31.133-6.566-26.107z"/><path fill="#A88BBB" d="m298.003 146.713-5.762-5.287-5.26 1.547-1.817 25.541 2.911 27.366 13.891-10.271-3.963-38.896z"/><path fill="#DEDEDC" d="m310.818 152.782-24.858 1.021.342 7.311 25.374-2.609-.858-5.723zM313.397 169.977l-27.335 2.319 1.101 7.135 27.151-3.339-.917-6.115z"/><path fill="#5C3F4D" d="m322.998 120.868 1.015 76.754-8.975-3.098-7.915-57.24 3.377-9.838 12.498-6.578z"/><path fill="#785667" d="m286.981 142.972 1.095 52.908-28.264 28.858 3.426-89.822 15.11 1.647 8.633 6.409z"/></g><g display="block"><path fill="#DFBEA7" d="m270.737 126.297 2.498-8.394-2.498-12.024-3.942-.413-3.102 3.363-.569-4.221-1.592-1.11V75.366l47.493-12.023 15.565 50.105-16.817 5.362-6.586 13.027-3.183 14.876-2.323-9.73-4.949-5.241-8.382-5.315-11.613-.13z"/><path fill="#C49B7F" d="m272.35 72.627 3.159 4.699 1.362 3.629 12.044 44.207 18.859-6.352-5.268 7.487.383 6.465.684 5.592-5.568 8.359-8.909-10.549-18.359-9.867v-12.932l1.836-5.986-1.836-1.501-7.043 2.95-2.16-5.331 1.704-10.095-1.704-18.037 10.816-2.738z"/><path fill="#8F6C5A" d="m267.215 97.825 4.203 1.929-5.34 3.063-1.08-2.778 2.217-2.214z"/><path fill="#C49B7F" d="m276.872 80.956 10.452.31 7.498 12.136-5.726-17.31-12.224 4.864zM307.213 71.057l-7.039 11.064-2.709-8.505 9.748-2.559z"/><path fill="#E9CCB9" d="m297.465 73.615 5.311 17.518-7.954 2.27-5.726-17.311 8.369-2.477z"/><path fill="#8F6C5A" d="m302.777 91.133-2.273 4.764-5.681-2.495 7.954-2.269zM282.352 126.427l20.537 6.335 4.885-13.952-25.422 7.617z"/><path fill="#937AA2" d="m261.533 75.366 9.204 18.944-9.204 9.188V75.366z"/><path fill="#8F6C5A" d="m270.737 105.879 5.452-2.496-5.452 9.982v-7.486z"/><path fill="#3B3C3B" d="M287.029 81.702a2.4 2.4 0 0 1-2.403 2.397 2.398 2.398 0 0 1-2.401-2.397 2.399 2.399 0 0 1 2.401-2.397 2.4 2.4 0 0 1 2.403 2.397zM304.909 76.091a2.4 2.4 0 0 1-2.402 2.397 2.4 2.4 0 0 1-2.402-2.397 2.398 2.398 0 0 1 2.402-2.397 2.4 2.4 0 0 1 2.402 2.397z"/><path fill="#937AA2" d="m306.131 66.308-10.117 5.028-6.35 2.317-14.156 3.673 1.364 3.63 12.94-2.7 8.254-2.663 9.146-4.535-1.081-4.75z"/><path fill="#8F6C5A" d="m315.275 95.897-28.542 8.39 12.067 7.704 11.702-3.403 4.773-12.691z"/><path fill="#FFF" d="m290.863 104.752 21.608-6.082-3.118 8.278-10.554 3.088-7.936-5.284z"/></g><g display="block"><path fill="#996A81" d="m290.732 131.742-19.996-5.445-12.043-4.311 4.545 12.932 34.765 11.796-7.271-14.972z"/><path fill="#5C3F4D" d="m270.737 118.811-12.044 3.176 12.044 4.312v-7.488z"/><path fill="#996A81" d="m307.774 118.81-9.77 27.904 24.994-25.845-15.224-2.059z"/></g><g display="block"><path fill="#785667" d="m235.63 96.692 5.297-2.374 2.883-3.978 6.175-13.597 3.094-16.187 5.974-9.156-3.553-11.65 21.088-2.334 14.486-7.194 8.412 11.529 8.844 7.741 6.913 9.227 6.506 5.759 2.841 4.763 7.612.909-11.526 8.025-4.38 6.04-2.531-10.499-4.74-10.373-24.894 4.83-22.597 7.193-.909 15.994.909 12.138-13.536-.793-11.686 2.607 1.22-4.003-1.902-4.617z"/><path fill="#B58B9F" d="m235.63 96.692 21.132 1.361-12.952-7.712-8.18 6.351z"/><path fill="#996A81" d="m256.763 98.054 2.727-26.996-8.706-10.502-6.974 29.785 12.953 7.713z"/><path fill="#5C3F4D" d="m259.489 71.057 31.812-9.302-7.386-4.539-2.259-7.367-26.156-10.1-4.715 20.807 8.704 10.501z"/><path fill="#785667" d="m291.3 61.756 17.042-5.218-.012-7.045-17.257-19.271-6.645 26.567 6.872 4.967z"/><path fill="#D2A4BA" d="m291.074 30.222-7.158 26.996L255.5 39.751l35.574-9.529z"/><path fill="#996A81" d="m321.75 64.477-1.591 9.529-11.816-17.468-.013-7.046 13.42 14.985z"/><path fill="#B58B9F" d="m321.75 64.478-1.591 9.528 15.102-5.383-13.511-4.145z"/><path fill="#5C3F4D" d="M335.261 68.622v5.383l-19.289 11.697-6.947-22.359-.682-6.805 11.815 16.09 15.103-4.006zM259.489 71.057l2.045 4.31v28.13l-25.222 1.816-.682-8.62 16.02-1.684 7.839-23.952z"/><path fill="#996A81" d="m308.343 56.537-17.042 5.219-31.812 9.302 2.045 4.309 47.491-12.023-.682-6.807zM277.668 38.615l2.044-12.022-10.452-9.982 2.841 11.881 5.567 10.123z"/><path fill="#B58B9F" d="m277.668 38.615-8.408-22.004-2.726 12.476 11.134 9.528z"/></g><g display="block"><path fill="#785667" d="m450.961 244.83-13.62 2.746v4.244h23.918l8.916-2.662-4.125-4.328h-15.089z"/><path fill="#996A81" d="m460.009 233.516-7.75 2.995-14.918 11.066 28.709.219 8.357-11.534-14.398-2.746z"/><path fill="#785667" d="m467.841 248.658-6.582 3.161v4.493h20.5l.416-3.994-14.334-3.66z"/><path fill="#B58B9F" d="m469.841 235.096-3.15 3.242-5.432 13.481 20.916.499-2.946-10.981-9.388-6.241z"/><path fill="#785667" d="m450.467 213.216-3.376 7.294 5.168 16.001 14.432 1.827 4.78-15.305-21.004-9.817z"/><path fill="#996A81" d="m472.425 217.377-8.478 6.822 2.744 14.14 12.538 2.998 3.362-17.138-10.166-6.822z"/><path fill="#7D648C" d="m468.925 213.715-4.977 10.483-16.857-3.688-8-23.269 17-.999 12.834 17.473z"/><path fill="#937AA2" d="m461.316 200.07-1.307 4.66 3.94 19.467h18.642l6.214-29.118-27.489 4.991z"/><path fill="#614D6B" d="m446.591 191.418-7.5 2.996v2.828l20.918 7.488 28.796-9.652-2.34-9.677-39.874 6.017z"/></g><g display="block"><path fill="#5C3F4D" d="m448.592 182.098-9.501 5.327v6.988l49.714.665v-6.822l-40.213-6.158z"/><path fill="#785667" d="m431.259 155.932-1.5 12.523 9.332 18.969 11.87-27.254-19.702-4.238z"/><path fill="#B58B9F" d="m436.592 139.418-6.101 1.718-.733 27.32 18.834-8.285-5.168-19.035-6.832-1.718z"/><path fill="#785667" d="m450.467 144.826-9.793-14.673-10.183 10.983 15.588 7.185 4.388-3.495z"/><path fill="#5C3F4D" d="m498.259 160.17 10.332 16.438-19.785 11.648-12.131-18.303 21.584-9.783z"/><path fill="#B58B9F" d="m481.955 156.77 5.146-15.489 18.298-1.863 3.192 37.19-23-7.987-3.636-11.851z"/><path fill="#996A81" d="m480.175 145.908 11.405-15.754 13.819 9.264-21.418 10.9-3.806-4.41z"/><path fill="#785667" d="m480.175 132.429-14.125 13.479v42.804l22.755-.457 2.775-58.101-11.405 1.474"/><path fill="#996A81" d="m452.591 128.966-11.916 1.188-1.584 57.271 26.959 1.289 10.625-36.379-10.625-6.427-5.781-13.478-7.678-3.464z"/><path fill="#D2A4BA" d="m468.675 160.759-2.624 1.482 1.312 2.824 2.812-1.81-1.5-2.496zM465.55 172.052l-2.75 1.498 1.25 3.058 2.64-1.658-1.14-2.898z"/></g><g display="block"><path fill="#614D6B" d="m447.175 75.398-16.684-5.518 16.184-1.864.5 7.382z"/><path fill="#8F6C5A" d="m463.509 117.349-7.668 4.764-2.25 8.042 12.459 15.754 21.051-18.239v-7.619l-23.592-2.702z"/><path fill="#614D6B" d="m491.582 104.392 12.103 17.818-11.278-1.015-12.232-6.332 11.407-10.471z"/><path fill="#C49B7F" d="m471.472 110.049 2.953 13.6 8.969 1.14 1.781 7.642 7.233-11.236 2.392-43.427-15.91-10.987-7.418 43.268z"/><path fill="#DFBEA7" d="m444.425 65.284-3.75 54.333 33.75 4.031 7.53-50.343-37.53-8.021z"/><path fill="#C49B7F" d="M449.009 81.596h-2.929l8.012 19.02 4.458.8h2.766l13.906-16.825-4.63-.832-7.083 1.83-1.121 3.138-3.046.856-3.75-1.705v-3.287l-2.5-2.408-4.083-.587z"/><path fill="#7D648C" d="m471.472 51.04 15.629-5.327L505.4 60.745l-4.194 22.074-19.251-13.701-10.483-18.078z"/><path fill="#937AA2" d="m451.65 43.048-8.959 18.458 11.818 5.139 32.592 1.333V45.712l-35.451-2.664z"/><path fill="#7D648C" d="m430.492 69.879 19.556 1.302 24.377 3.343 7.53-1.22h5.145v-5.328l-42.657-10.08-13.951 11.983z"/><path fill="#614D6B" d="m501.207 91.573-11.438-5.328-3.11-8.478-4.704-4.462 5.146-5.328 14.106 14.843v8.753z"/><path fill="#937AA2" d="m486.218 82.183-2.238 22.511 7.601 10.483 2.05-1.55 10.053 8.584-2.478-30.637-14.988-9.391z"/><path fill="#E9CCB9" d="m455.592 87.878-1.5 12.739 4.147 1.581 3.077-.781 1.072-12.688-6.796-.851z"/><path fill="#515152" d="m454.092 80.046 1.5 4.546-9.512-2.995 8.012-1.551zM467.091 81.596l-3.582 3.994 11.712-.998-8.13-2.996z"/><path fill="#8F6C5A" d="m466.05 108.006-2.541 3.423-13.042-1.486-1.837-3.79 17.42 1.853z"/><path fill="#3B3C3B" d="M452.342 87.878a1.873 1.873 0 0 1-1.875 1.872 1.873 1.873 0 1 1 0-3.744c1.036 0 1.875.838 1.875 1.872zM468.966 89.209a1.873 1.873 0 0 1-1.875 1.872 1.874 1.874 0 0 1-1.875-1.872c0-1.034.84-1.872 1.875-1.872 1.036 0 1.875.838 1.875 1.872z"/><path fill="#8F6C5A" d="m483.981 104.693 9.65 8.935-1.224 7.567-8.426-16.502zM486.218 82.183l-4.738-5.701-37.435-5.699 37.91 2.522 4.702 4.463-.439 4.415z"/><path fill="#7D648C" d="m486.66 77.767-.441 4.417 17.464 40.027-2.476-30.637-14.547-13.807z"/><path fill="#585B5C" d="m443.868 107.681 27.604 2.368-10.157-8.633-3.645.891-3.578-1.69"/><path fill="#8F6C5A" d="m454.092 100.616 3.935 3.382 3.289-2.582-7.224-.8z"/></g><g display="block"><path fill="#D2A4BA" d="m466.05 145.907 4.125-15.85 22.231-8.864-.826 8.959-25.53 15.755z"/><path fill="#D2A4BA" d="m440.675 130.153 15.167-8.042 10.209 23.796-25.376-15.754z"/></g><g display="block"><path fill="#785667" d="m552.259 261.971-13.62 2.746v4.244h23.917l8.917-2.662-4.125-4.328h-15.089z"/><path fill="#996A81" d="m561.305 250.658-7.75 2.995-14.917 11.065 28.709.22 8.357-11.534-14.399-2.746z"/><path fill="#785667" d="m569.139 265.799-6.584 3.161v4.493h20.501l.415-3.994-14.332-3.66z"/><path fill="#B58B9F" d="m571.139 252.237-3.15 3.243-5.434 13.48 20.916.499-2.945-10.98-9.387-6.242z"/><path fill="#785667" d="m551.764 230.356-3.375 7.296 5.166 16.001 14.434 1.827 4.78-15.305-21.005-9.819z"/><path fill="#996A81" d="m573.722 234.519-8.478 6.82 2.745 14.142 12.537 2.998 3.362-17.14-10.166-6.82z"/><path fill="#7D648C" d="m570.222 230.856-4.978 10.483-16.856-3.687-8-23.27 17-.999 12.834 17.473z"/><path fill="#937AA2" d="m562.612 217.212-1.307 4.658 3.941 19.468h18.642l6.215-29.118-27.491 4.992z"/><path fill="#614D6B" d="m547.889 208.56-7.5 2.996v2.828l20.916 7.488 28.798-9.651-3.191-9.708-39.023 6.047z"/></g><g display="block"><path fill="#5C3F4D" d="m549.889 199.241-9.5 5.327v6.988l49.714.665v-6.823l-40.214-6.157z"/><path fill="#785667" d="m532.555 173.074-1.5 12.522 9.334 18.972 11.868-27.256-19.702-4.238z"/><path fill="#B58B9F" d="m537.889 156.56-6.1 1.717-.734 27.319 18.834-8.285-5.167-19.034-6.833-1.717z"/><path fill="#785667" d="m551.764 161.967-9.793-14.671-10.183 10.981 15.588 7.185 4.388-3.495z"/><path fill="#5C3F4D" d="m599.556 177.312 10.332 16.439-19.785 11.647-12.131-18.304 21.584-9.782z"/><path fill="#B58B9F" d="m583.252 173.911 5.146-15.488 18.298-1.864 3.192 37.192-23-7.987-3.636-11.853z"/><path fill="#996A81" d="m581.472 163.05 11.405-15.754 13.819 9.264-21.419 10.9-3.805-4.41z"/><path fill="#785667" d="m581.472 149.572-14.125 13.478v42.806l22.756-.458 2.774-58.102-11.405 1.474"/><path fill="#996A81" d="m553.889 146.108-11.918 1.188-1.582 57.271 26.957 1.289 10.625-36.379-10.625-6.427-5.782-13.478-7.675-3.464z"/><path fill="#D2A4BA" d="m569.971 177.9-2.624 1.483 1.312 2.825 2.812-1.81-1.5-2.498zM566.847 189.195l-2.75 1.498 1.25 3.058 2.642-1.658-1.142-2.898z"/></g><g display="block"><path fill="#614D6B" d="m548.472 92.54-16.684-5.518 16.184-1.864.5 7.382z"/><path fill="#5A443B" d="m564.805 134.491-7.666 4.764-2.25 8.042 12.458 15.754 21.05-18.239v-7.619l-23.592-2.702z"/><path fill="#614D6B" d="m592.879 121.535 12.102 17.818-11.276-1.016-12.232-6.332 11.406-10.47z"/><path fill="#7A5D50" d="m572.769 127.19 2.953 13.6 8.459 1.649 2.291 7.133 7.233-11.236 2.392-43.427-15.91-10.987-7.418 43.268z"/><path fill="#957362" d="m545.722 82.426-3.75 54.333 33.75 4.031 7.53-50.343-37.53-8.021z"/><path fill="#7A5D50" d="m552.425 98.239-4.497 1.087 3.836 5.642 3.625 12.791 4.458.799 4.116.009 6.931-12.658 7.078-3.369-5.203-2.054-7.964 2.246-4.166 3.993-2.461-4.678-3.789-2.722-1.964-1.086z"/><path fill="#5A443B" d="m557.639 115.281-2.25 2.477 4.958 4.077 3.616-3.268-6.324-3.286z"/><path fill="#7D648C" d="m572.769 68.182 15.629-5.327 18.299 15.032-4.194 22.074-19.251-13.701-10.483-18.078z"/><path fill="#937AA2" d="m552.946 60.19-8.957 18.458 11.815 5.139 32.593 1.333V62.854l-35.451-2.664z"/><path fill="#7D648C" d="m531.789 87.021 19.556 1.302 24.377 3.343 7.53-1.22h5.145v-5.328l-42.657-10.08-13.951 11.983z"/><path fill="#614D6B" d="m602.504 108.716-11.437-5.329-3.111-8.478-4.704-4.463 5.146-5.328 14.106 14.844v8.754z"/><path fill="#937AA2" d="m587.515 99.325-2.238 22.511 7.601 10.483 2.05-1.55 10.053 8.584-2.478-30.637-14.988-9.391z"/><path fill="#9C7D70" d="m558.178 102.047-2.789 15.711 8.574.809.842-15.835-6.627-.685z"/><path fill="#515152" d="m548.33 96.883 9.849 1.355v3.809l-10.252-2.722.403-2.442zM565.389 98.238l-.584 4.494 13.166-.192v-2.578l-12.582-1.724z"/><path fill="#3B3C3B" d="M554.299 104.037c0 1.034-.84 1.872-1.875 1.872a1.874 1.874 0 0 1-1.875-1.872c0-1.034.84-1.872 1.875-1.872 1.035 0 1.875.838 1.875 1.872zM572.769 105.909c0 1.034-.84 1.872-1.875 1.872a1.873 1.873 0 1 1 0-3.744c1.035 0 1.875.838 1.875 1.872z"/><path fill="#5A443B" d="m585.278 121.835 9.65 8.935-1.224 7.567-8.426-16.502zM570.26 125.458l-4.066 5.669-6.527-.5-7.073-.54-2.666-6.792 9.966 1.061 10.366 1.102z"/><path fill="#FFF" d="m552.594 124.769 14.334 1.696-1.5 3.058-11.438-.936-1.396-3.818z"/><path fill="#5A443B" d="m587.515 99.325-4.738-5.701-37.435-5.699 37.91 2.522 4.702 4.463-.439 4.415z"/><path fill="#7D648C" d="m587.957 94.909-.442 4.416 17.466 40.028-2.477-30.637-14.547-13.807z"/></g><g display="block"><path fill="#D2A4BA" d="m567.347 163.049 4.125-15.85 22.231-8.864-.826 8.959-25.53 15.755zM541.971 147.295l15.167-8.042 10.209 23.796-25.376-15.754z"/></g><g display="block"><path fill="#785667" d="m660.52 281.542-13.62 2.746v4.244h23.918l8.916-2.662-4.125-4.328H660.52z"/><path fill="#996A81" d="m669.568 270.228-7.75 2.995-14.918 11.066 28.709.219 8.357-11.534-14.398-2.746z"/><path fill="#785667" d="m677.4 285.37-6.582 3.161v4.493h20.5l.416-3.994-14.334-3.66z"/><path fill="#B58B9F" d="m679.4 271.808-3.15 3.242-5.432 13.481 20.916.499-2.946-10.981-9.388-6.241z"/><path fill="#785667" d="m660.026 249.928-3.376 7.294 5.168 16.001 14.432 1.827 4.78-15.305-21.004-9.817z"/><path fill="#996A81" d="m681.984 254.089-8.478 6.822 2.744 14.14 12.538 2.998 3.362-17.138-10.166-6.822z"/><path fill="#7D648C" d="m678.484 250.427-4.977 10.483-16.857-3.688-8-23.269 17-.999 12.834 17.473z"/><path fill="#937AA2" d="m670.875 236.782-1.307 4.659 3.94 19.469h18.641l6.215-29.12-27.489 4.992z"/><path fill="#614D6B" d="m656.15 228.13-7.5 2.995v2.829l20.917 7.488 28.797-9.652-2.342-8.047-39.872 4.387z"/></g><g display="block"><path fill="#5C3F4D" d="m658.151 218.811-9.502 5.327v6.988l49.716.665v-6.823l-40.214-6.157z"/><path fill="#785667" d="m640.818 192.645-1.5 12.522 9.332 18.97 11.87-27.254-19.702-4.238z"/><path fill="#B58B9F" d="m646.151 176.131-6.101 1.717-.733 27.319 18.834-8.284-5.168-19.035-6.832-1.717z"/><path fill="#785667" d="m660.026 181.539-9.793-14.673-10.183 10.982 15.588 7.186 4.388-3.495z"/><path fill="#5C3F4D" d="m707.818 196.884 10.332 16.437-19.785 11.647-12.131-18.303 21.584-9.781z"/><path fill="#B58B9F" d="m691.514 193.482 5.146-15.488 18.298-1.864 3.192 37.19-23-7.987-3.636-11.851z"/><path fill="#996A81" d="m689.734 182.62 11.405-15.754 13.819 9.264-21.419 10.9-3.805-4.41z"/><path fill="#785667" d="m689.734 169.142-14.125 13.479v42.804l22.756-.457 2.774-58.101-11.405 1.474"/><path fill="#996A81" d="m662.15 165.678-11.916 1.188-1.584 57.271 26.959 1.289 10.625-36.379-10.625-6.427-5.781-13.478-7.678-3.464z"/><path fill="#D2A4BA" d="m678.234 197.471-2.624 1.482 1.312 2.824 2.812-1.81-1.5-2.496zM675.109 208.765l-2.75 1.498 1.25 3.058 2.64-1.658-1.14-2.898z"/></g><g display="block"><path fill="#614D6B" d="m656.734 112.11-16.684-5.519 16.184-1.863.5 7.382z"/><path fill="#87614C" d="m673.068 154.06-7.668 4.764-2.25 8.042 12.458 15.754 21.052-18.238v-7.619l-23.592-2.703z"/><path fill="#614D6B" d="m701.141 141.104 12.102 17.818-11.276-1.014-12.232-6.334 11.406-10.47z"/><path fill="#A98269" d="m681.031 146.761 2.953 13.6 8.224 1.437 2.526 7.345 7.233-11.235 2.392-43.428-15.91-10.987-7.418 43.268z"/><path fill="#C09E87" d="m653.984 101.996-3.75 54.333 33.75 4.031 7.53-50.343-37.53-8.021z"/><path fill="#A98269" d="m658.568 118.308-2.929 2.164 8.011 16.856 4.458.801 4.117.009 11.758-15.004-3.833-2.662-7.082 1.83-4.168 3.994-3.75-4.992-2.5-2.408-4.082-.588z"/><path fill="#87614C" d="m665.901 134.851-2.25 2.477 4.958 4.077 3.616-3.268-6.324-3.286z"/><path fill="#7D648C" d="m681.031 87.752 15.629-5.327 18.299 15.032-4.194 22.074-19.251-13.701-10.483-18.078z"/><path fill="#937AA2" d="m661.209 79.76-8.959 18.459 11.818 5.138 32.592 1.333V82.424l-35.451-2.664z"/><path fill="#7D648C" d="m640.051 106.591 19.556 1.302 24.377 3.343 7.53-1.219h5.145v-5.328l-42.657-10.081-13.951 11.983z"/><path fill="#614D6B" d="m710.766 128.285-11.437-5.328-3.111-8.478-4.704-4.462 5.146-5.328 14.106 14.843v8.753z"/><path fill="#937AA2" d="m695.777 118.895-2.238 22.511 7.601 10.483 2.05-1.55 10.053 8.584-2.478-30.637-14.988-9.391z"/><path fill="#CAAF9E" d="m665.151 121.303-1.5 16.026 8.573.808.843-15.836-7.916-.998z"/><path fill="#585B5C" d="m655.984 116.487 9.417.823-.25 3.993-9.512-.832.345-3.984zM673.651 117.808l-.583 4.494 10.916.832v-3.602l-10.333-1.724z"/><path fill="#87614C" d="m678.523 145.028-2.108 1.439-16.916-1.837-1.31-1.765 20.334 2.163z"/><path fill="#3B3C3B" d="M661.901 124.59a1.873 1.873 0 0 1-1.875 1.872 1.873 1.873 0 1 1 0-3.744c1.036 0 1.875.838 1.875 1.872zM678.525 125.921a1.873 1.873 0 0 1-1.875 1.872 1.874 1.874 0 0 1-1.875-1.872c0-1.034.84-1.872 1.875-1.872 1.036 0 1.875.838 1.875 1.872z"/><path fill="#87614C" d="m693.54 141.405 9.65 8.935-1.224 7.567-8.426-16.502zM695.777 118.895l-4.738-5.701-37.435-5.701 37.91 2.524 4.702 4.462-.439 4.416z"/><path fill="#7D648C" d="m696.219 114.479-.442 4.416 17.466 40.028-2.477-30.637-14.547-13.807z"/><path fill="#585B5C" d="m668.001 150.899-6.813 6.739 12.832 1.533-6.019-8.272z"/></g><g display="block"><path fill="#D2A4BA" d="m675.609 182.62 4.125-15.85 22.231-8.864-.826 8.959-25.53 15.755z"/><path fill="#D2A4BA" d="m650.234 166.866 15.167-8.042 10.209 23.796-25.376-15.754z"/></g></g></svg>