<svg xmlns="http://www.w3.org/2000/svg" width="900" height="350" style="width:100%;height:100%;content-visibility:visible" viewBox="0 0 900 350"><defs><clipPath id="a"><path d="M0 0h900v350H0z"/></clipPath></defs><g clip-path="url(#a)"><g display="block"><path fill="#3B3C3B" d="M60.25 325.25 127.5 343l63.25-26.25-66.25-11-64.25 19.5zM294.5 287.5l-92 28.667 238.75 33.958 111.25-25.958 132 10.666 14-4.666 102 11.333 54.666-24-336.666-40-224 10z" opacity=".1"/><path fill="#C4C4C4" d="m352.501 29.5-174.001 81 159.001 139 550 59 12.5-296.144V.528L352.501 29.5z"/><path fill="#66C0D9" d="m352.501 29.5-174.001 81 173.501-51 544.568-19.902 3.432-34.121V.528L352.501 29.5z"/><path fill="#DDDDDB" d="m23.5 315.5 323.999-67.001 5-218.999L.501 1.5l22.999 314z"/><path fill="#79CFE4" d="m3 40.5 348.834 16.666.667-27.666-352-28L3 40.5z"/><path fill="#47A1BA" d="m679.167 282.834 46.666-7.334v32l-48.666 17.334-23.334-24 25.334-18z"/><path fill="#66C0D9" d="m629.167 306.833-29.334-20.667 57.334-15.333 68.666 4.667-48.666 16.666-48 14.667z"/><path fill="#4091A7" d="M599.833 318.833v-32.666l77.334 6v32.666l-77.334-6z"/><path fill="#47A1BA" d="m608.75 293.5-6.5 7 8.124.376-1.624-7.376zM612.75 307.25l.5 5.624 8.124-3-8.624-2.624zM632.75 296.5l-4.626 6.125L637 304.5l-4.25-8zM651.125 310.25l4.125 9.376 6.625-5.626-10.75-3.75zM661.25 303.376l6-5.876 3.75 7.876-9.75-2z"/><path fill="#66C0D9" d="m690.625 292.75-.375 7.25 7.25-3.125-6.875-4.125zM700.374 300.25l5.376 8.376s4.999-7.5 4.624-7.5-10-.876-10-.876zM687 312.626l7.124.874s-1.625-6.624-2-6.624-5.124 5.75-5.124 5.75zM716.25 292l-4.75 5.75 7.124-1.125L716.25 292z"/><path fill="#47A1BA" d="m686.377 233.464 37.456-5.886v43.343l-39.062 13.913-18.727-19.265 20.333-32.105z"/><path fill="#66C0D9" d="m646.246 270.387-23.543-34.246 46.018-12.308 55.112 3.746-39.061 13.378-38.526 29.43z"/><path fill="#4091A7" d="M622.703 280.017V236.14l62.068 4.815v43.878l-62.068-4.816z"/><path fill="#47A1BA" d="m640.334 281.5 6.166-43.75 10.584-.5 2.385 1.687.031 43.979-14.416-.583-4.75-.833z"/><path fill="#79CFE4" d="m680 224.625-33.5 13.125 12.969 1.188L696 225.625l-16-1z"/><path fill="#47A1BA" d="m793.044 278.464 37.456-5.886v43.343l-39.062 13.913-18.727-19.265 20.333-32.105z"/><path fill="#66C0D9" d="m752.912 315.387-23.544-34.246 46.018-12.307 55.114 3.746-39.062 13.377-38.526 29.43z"/><path fill="#4091A7" d="M729.368 325.018v-43.877l62.07 4.815v43.877l-62.07-4.815z"/><path fill="#58AAAB" d="m752.875 282.874-.125 44 12.375.876 1.625-43.626-13.875-1.25z"/><path fill="#77CBCC" d="m749.709 275.667 57.041 5.083 9.125-3-51.75-5.916-14.416 3.833z"/><path fill="#95D5D5" d="m789.313 269.687-36.439 13.188 13.876 1.25 36.125-13.501-13.562-.937z"/><path fill="#58AAAB" d="m807 324.334-.25-43.584 9.125-3 2.958 42.25L807 324.334z"/><path fill="#3B3C3B" d="m776 205.5-1.5 37 75 8-5-168.5L776 205.5z" opacity=".1"/><path fill="#77CBCC" d="m762.5 82.833-.667 152 79.334 7.333L844.5 82l-82 .833z"/><path fill="#DDDDDB" d="m775.167 98.167-3.334 125.667 58.334 5L831.833 97.5l-56.666.667z"/><path fill="#77CBCC" d="m784.5 110.5 37.666-.167-.166 5.834-37.168.666-.332-6.333zM779.75 195.5l40.5 2.25-.5 7.25-39.667-3.167-.333-6.333zM779.5 206.75 820 209l-.5 7.25-39.667-3.167-.333-6.333z"/><path fill="#58AAAB" d="m799.167 127.833-12.834 19.334 6 3.834-6 11.5 6.166 3-6 11.332 8.834 1.5.5 10.668 6 .666 1.5-11.334 12.166-.666-9.832-11.166 5.832-4.168-8-11 6.168-3.332-10.5-20.168z"/><path fill="#3A7D8F" d="m100.084 302.458-10.167-15.833 36.167-9.417 36.333 9.583-24.583 21.917-37.75-6.25z"/><path fill="#878989" d="m138.458 257.334-3.5 47.25-8.624-.376-9-48 21.124 1.126z"/><path fill="#757778" d="m107.584 304.708 11.25-8.375-3.875-43.25 8.375-.625 4.03 15.541.47 25.959-9.25 11.75-11-1z"/><path fill="#47A1BA" d="m115.333 307.208 13.25 23.5 26.5-8 5.334-25.417-32.584-3.333-12.5 13.25z"/><path fill="#66C0D9" d="m115.333 307.208 12.75-3.083 32.334-6.833 2-10.5-34.584 7.166-12.5 13.25z"/><path fill="#77CBCC" d="M114.057 232.668 127.364 268l64.697-22.024-52.768-67.91-33.036 40.378 7.8 14.224z"/><path fill="#58AAAB" d="m100.75 191.83-37.167 62.403L127.363 268l5.964-55.062-32.577-21.108zM114.974 122.086l18.354 90.852 59.191-32.579-50.014-50.932-27.531-7.341z"/><path fill="#449698" d="m103.962 136.769-39.461 54.145 68.826 22.025-5.964-64.239-23.401-11.931z"/><path fill="#77CBCC" d="m115.892 108.32 8.718-62.861 42.673 82.591-39.92 20.649-11.471-40.379z"/><path fill="#58AAAB" d="m124.61 45.459 2.753 103.24-50.014-14.224 47.261-89.016z"/><path fill="#4091A7" d="m91.916 298.792 28.161-3.79 8.006 9.123.5 26.584-32.5-7.25-4.167-24.667z"/><path fill="#47A1BA" d="m89.916 286.625 37.917 7.333.25 10.167-36.167-5.333-2-12.167z"/><path fill="#58AAAB" d="m136.916 105.25-.687 4.354-3.688 2.168 3.792 1.833.021 4.959 3.791-3.605 4.938-.125-2.875-3.501 1.666-2.875-3.479-.061-3.479-3.147z"/><path fill="#77CBCC" d="m106.889 123.087-3.548 2.616-4.146-1.048 1.411 3.969-3.468 3.543 5.23.098 3.602 3.38.412-4.511 3.206-.876-2.432-2.488-.267-4.683zM143.708 165.334l-.5 4.937-3.375 2.188 3.813.812-.375 4.376 3.625-3.813h5.375l-3.251-2.688 1.563-3.687-3.437 1.25-3.438-3.375z"/><path fill="#58AAAB" d="m109.916 178.125-1.417 3.668-3.833 1.916 2.75.834-.25 4.416 3.501-3.584 5.833 2.418-4.416-4.418 3.25-2.082h-4.5l-.918-3.168zM150.416 221.958l-3.167 4.583-6.5 1.084 5.584 2.333-1.667 5.167 6.25-3.334 6.917 3.667-2.917-4.75 3.75-2.917-6.667-.166-1.583-5.667z"/><path fill="#77CBCC" d="m102.416 226.375 1.917 5.417-4.5 3.083 5.916-.167 3.417 8.667.333-8.167 8.25-1-7-1.75 3.917-4.166-7.417 2.166-4.833-4.083z"/><path fill="#3B3C3B" d="m260.93 110.999-58.599-8.992-9.295 67.591 67.49-6.466.404-52.133z" opacity=".1"/><path fill="#C4C4C4" d="m213.849 149.291-5.153 6.518-4.145-.632-2.826-.429.606-52.739 5.509-.91 6.009 48.192z"/><path fill="#CECECD" d="m223.7 134.288 2.577 19.55-17.58 1.97-.856-54.709 15.859 33.189z"/><path fill="#EBEBEA" d="m207.84 101.099 57.545.555 5.143 48.85-55.063 7.173-7.625-56.578z"/><path fill="#CECECD" d="m220.854 116.859 11.111-3.333 4.92 9.047-3.809 13.651 6.984-.794.159 6.825-15.079 1.429-.635-8.572 5.396-9.84-1.269-3.651-7.302 1.111-.476-5.873zm36.692-2.727-12.882.151-3.485 9.245 11.517 4.243 1.061 6.971-9.851.455.556 6.567 14.751-1.566 1.212-11.972-9.396-6.214v-3.182l8.942.454-2.425-5.152z"/></g><path fill="#C3997F" d="m413.334 188.667-21.168-8.333L372.75 184l3.299 16.794 16.451-4.127 19 5.167 1.834-13.167z" display="block"/><path fill="#58AAAB" d="m328.911 150.764-21.899 46.448 24.696-10.775 5.629-5.394-8.426-30.279zM367.587 144.825l7.395 3.322 17.185 32.187L372 187.25l-4.413-20.161v-22.264z" display="block"/><g display="block"><path fill="#449698" d="m367.587 214.343-13.507 24.376-22.639 21.26-13.146-40.973 49.292-4.663z"/><path fill="#58AAAB" d="m367.587 214.342 5.827 9.782 6.381 30.953v15.621l-45.513-2.046-2.841-8.673 36.146-45.637z"/><path fill="#449698" d="m334.282 268.652 45.513-13.575 1.819 18.438-47.332-4.863z"/><path fill="#449698" d="m367.587 214.343 12.208 40.735-5.221-50.264-6.987 9.529z"/><path fill="#77CBCC" d="m367.587 144.825-8.283 21.145-11.644 4.981 11.897-8.932-15.492-18.937-15.155 7.682 3.956 22.094 1.186 6.617-6.529 19.542-9.229 19.989h23.207l26.086-4.663 6.987-9.529-5.574-5.147 12.613-23.583-14.026-31.259z"/><path fill="#449698" d="m334.052 179.475-6.527 19.542 47.049 5.797 7.041-28.73-47.563 3.391z"/></g><g display="block"><path fill="#4091A7" d="m569.75 292-10.917 18-14.333-1.833-19-35.667 40.75 1.5 3.5 18z"/><path fill="#3A7D8F" d="m279 283.5.833 39.666L299 318.833l15.5-38.333-35.5 3z"/><path fill="#47A1BA" d="m417.167 303.5 23.332 38.5 20.334-5.666 10-27.5 87.5-21.5.5 22.666 22.378-5.303 8.622-67.863L417.167 259.5v44z"/><path fill="#4091A7" d="m248.5 250.834 7.5 68 23.833 4.333 5.667-22 128 14.333 3.167 22.834L440.5 342l4-76.5-196-14.666z"/><path fill="#CECECD" d="m419.5 224 35.75 57.75L605 246l5-26.5-190.5 4.5z"/><path fill="#A4A4A4" d="m315 230.5-88.167-.5 10.667 31.5 217.75 20.25L456 254l-141-23.5z"/><path fill="#EBEBEA" d="M428.25 204.25 226.833 230 456 254l154-34.5-181.75-15.25z"/><path fill="#3B3C3B" fill-opacity=".1" d="m377.834 210.5-58.833 7.834 60.166 9.5 57.575 6.5-4.241-11.167-54.667-12.667z"/></g><g display="block"><path fill="#47A1BA" d="M422.136 208.167 398.722 225.5l26.738 4.333L451.11 224l.534-5.791-15.971.791-13.537-10.833z"/><path fill="#66C0D9" d="m469.16 222.5-17.517-4.291-26.182 11.624 11.281 4.5L469.16 222.5z"/><path fill="#47A1BA" d="m425.995 215.583 9.677 3.417 26.577-18.25-22.539-14.25-24.581-2.542-18.88 14.75 29.746 16.875z"/><path fill="#66C0D9" d="m415.13 183.959 29.567-2.375 36.554 16.667-19.001 2.5-47.12-16.792z"/><path fill="#EBEBEA" d="m375.853 204.506-23.541-10.058 42.354-5.281 38.394 7.82-19.383 11.62-37.824-4.101z"/><path fill="#DDDDDB" d="m387.991 209.486 13.95-8.398 31.118-4.101L435.672 219l-36.951 6.5-10.73-16.014z"/><path fill="#CECECD" d="m352.312 194.448 5.106 14.449-3.497 12.893 46.78-11.581 1.24-9.12-49.629-6.641z"/><path fill="#47A1BA" d="m352.313 194.448 1.021 27.218 45.388 3.834 1.979-15.292-16.921-2.875-31.467-12.885z"/><path fill="#66C0D9" d="m352.313 194.448 48.388 15.761-18.465 4.125-29.923-19.886z"/></g><g display="block"><path fill="#C3997F" d="m355.5 209.25 5-6 8.166 8.75-5.084 5.834L353 216.209l2.5-6.959z"/><path fill="#DEBDA6" d="m360.5 203.25-12.25-1.75-5.25 1-2 6.25 12 7.458 3.403-5.879 4.097-7.079z"/><path fill="#C3997F" d="m348.25 201.5-16.453-15.25-24.785 10.962L341 208.75l7.25-7.25z"/></g><g display="block"><path fill="#FFF" d="m367.587 144.825-26.085-.618v30.17l17.803-8.407 19.731 4.368-11.449-25.513z"/><path fill="#585B5C" d="m411.337 82.047 13.152 13.565-16.122 13.627-.164-13.987 3.134-13.205z"/><path fill="#77CBCC" d="m341.089 65.372-5.016-6.155-4.295-14.824 57.466-10.813 1.265 14.891-1.849 10.906-25.953 6.903-21.618-.908z"/><path fill="#95D5D5" d="m389.243 33.58 32.465 23.574-10.372 24.894-13.856-10.172-8.82-12.5.583-25.796z"/><path fill="#449698" d="m331.778 44.392-4.18 31.726 8.633-4.455 4.858-6.291-9.311-20.98z"/><path fill="#3A7D8F" d="m389.126 38.812-2.277.355-.291 6.208-5.455.816-.188 4.117 5.642-.733-.113 5.719 2.312-.217 1.753-6.606-1.383-9.659z"/><path fill="#4091A7" d="m389.125 38.812 2.166 1.789-.02 5.351 4.493 3.638-.91 3.523-3.712-2.842-.236 6.105-2.15-1.299.369-16.265z"/><path fill="#DEBDA6" d="m411.336 82.047-6.939 63.511-31.638-2.336-20.081 6.258-14.575-19.605-13.198-20.519 13.251-3.664 2.208 4.107 17.801-25.148 11.497-3.658 13.737-2.579 27.937 3.633z"/><path fill="#C3997F" d="m358.165 84.651-5.682 57.552 20.276 1.019-7.484 4.359.646 6.501-6.616 11.887-17.804-21.762-8.398-18.161-1.025-5.295-2.73-2.455-6.676-13.783 14.076-7.14 2.502 13.455 6.715-10.526 12.2-15.651zM402.407 96.941l-14.931 12.838-7.142 5.945-12.069-21.304 34.142 2.521z"/><path fill="#E8CAB8" d="m382.141 95.397-1.807 20.328 6.587.636 1.729-20.504-6.509-.46z"/><path fill="#8E6C5A" d="m386.921 116.36-3.785 3.592-2.802-4.228 6.587.636zM372.759 143.221l-6.837 10.86-19.261-13.2 26.098 2.34zM337.996 115.361l-4.892 10.688-3.754-7.749 8.646-2.939zM335.986 112.886l-2.43-8.132-6.302 1.933 8.732 6.199z"/><path fill="#585B5C" d="m380.473 83.559 6.547-11.51 1.64-12.673-47.572 5.996-26.987 21.34 22.134.106 21.93-2.167 9.686-.474 12.622-.618z"/><path fill="#3B3C3B" d="m358.165 84.652-18.546 27.75-3.696-11.552-13.251 3.664-8.571-17.801 44.064-2.061z"/><path fill="#757778" d="m388.66 59.376 22.677 22.672-30.864 1.512 8.187-24.184z"/><path fill="#585B5C" d="m382.141 95.397.377-4.502-14.252 3.526 13.875.976zM388.65 95.856l13.757 1.085-13.25-5.398-.507 4.313z"/><path fill="#337B7D" d="m375.372 126.849 7.472-2.51 6.676 3.575-7.268 2.283-6.88-3.348z"/><path fill="#58AAAB" d="m370.057 124.853 12.115 8.925 12.392-6.987-12.145 2.703-12.362-4.641z"/><path fill="#3B3C3B" d="M377.624 104.646a3.088 3.088 0 1 1-6.008-1.427 3.088 3.088 0 0 1 6.008 1.427zM397.056 106.085a3.088 3.088 0 1 1-6.007-1.426 3.088 3.088 0 0 1 6.007 1.426z"/></g><g display="block"><path fill="#EBEBEA" d="M496.5 43.5 616 20l83 27.5 25.333 80.667L639.5 187.5l-105.167-16.833-64.5-49L496.5 43.5zM457.5 140.75l7.75-5.75 8.75 3.5.25 10.75-11 2.917-6.584-3.834.834-7.583zM435.955 140.016l6.82 3.06.949 7.239-7.308 3.601-5.332-4-.57-7.591 5.441-2.309zM418.484 135.793l.711 4.736-3.574 3.017-4.47-2.692.311-4.261 3.895-2.933 3.127 2.133z"/></g><path fill="#DDDDDB" d="m533.25 160 22.25-13.833 137.25 4.083-52.979 37.333-84.271-13.458L533.25 160z" display="block"/><g display="block"><path fill="#585B5C" d="m627 162.667-11 4.167-2.167 16.666 13.834 2.167 4.083-10.917-4.75-12.083z"/><path fill="#757778" d="m645.125 150-13.958-7.833L616 166.833l15.75 7.917L651 162.875 645.125 150zM644.75 172.5l-2 4.376 2.344 7 7.461-5.281-7.805-6.095z"/><path fill="#878989" d="m643.333 152.333-4.5 9.333 3.917 15.209 9.805 1.719 9.534-6.702 2.458-21.584-21.214 2.025z"/><path fill="#585B5C" d="m639.5 134.333-8.334 7.834 7.666 19.5 25.668-11.5-25-15.834z"/></g><g display="block"><path fill="#4091A7" d="m606.5 61.083 12.333 8.334-4.083 6.75L598 69.583l-3.833-9.75 12.333 1.25z"/><path fill="#66C0D9" d="m638.083 53.25 2-7.167L614 45.5l-19.833 14.333 17.75 9.835 26.166-16.418z"/><path fill="#8E6C5A" d="m624.333 77.666-3.166-1.832-2.084-5.75 9.084-6.75 7.666-2.25-7.916 14.332-3.584 2.25z"/><path fill="#47A1BA" d="m614.75 76.166 16.375-12.667 14.125-9.333-5.168-8.082-28.166 23.582 2.834 6.5z"/><path fill="#C3997F" d="m641.75 116.75-15.25-16.125-5.334-24.792 9.084-1.583 15 28.125-3.5 14.375z"/><path fill="#58AAAB" d="m636.25 118-9.75-17.375 4.167-2.292L644.5 96.5l9.376 14.25L636.25 118z"/><path fill="#DEBDA6" d="m624.833 75.333 5.417-1.082 1.583-5.835-5.5-8.415-2.25 1.75 2.75 5.665-2.75 5.5.75 2.417z"/><path fill="#DDDDDB" d="m612.875 49.958 15 .959-11.584 9.375-14-3.459 10.584-6.875z"/><path fill="#47A1BA" d="m601 57.958 13.417 4.25-2.167 2.126-12.417-5.542 1.167-.834z"/></g><g display="block"><path fill="#C3997F" d="m674.5 157-3 2.75-1.5 6.5 7-4.875.124-5.75L673 152l-4.5 3.875.874 2.25L674.5 157z"/><path fill="#DEBDA6" d="M675.874 149.376 673 152l-1.5 7.75s5.125 1.751 5.5 1.626 3.124-2.25 3.124-2.25l-.374-4.75-3.876-5z"/><path fill="#C3997F" d="m677.5 130 10 5.168-7.75 19.208L673 152l-.376-14.25L677.5 130z"/><path fill="#449698" d="m660.666 126.334 15.833-8.833 11 17.666-14.875 2.584-11.958-11.417z"/></g><g display="block"><path fill="#58AAAB" d="m641 115-7.125 6.25-2.708 20.917 33.333 8 7.625-19.667L641 115z"/><path fill="#77CBCC" d="m649.126 106.25-5.25-7.25-2.75 1.625-7.25 20.625 38.25 9.25 4.374-13-5.374-5.875-22-5.375z"/></g><g display="block"><path fill="#515152" d="m670.188 65.25 9.063-2.625 5.437 15.125-1.25 4.375-13.937 5.562-3.313-18.499 4-3.938z"/><path fill="#8E6C5A" d="M671.375 91.626 678 95.5l1.75-4.25-2.625-4.374-6.813.124 1.063 4.626z"/><path fill="#C3997F" d="m671.125 87.5 3.5 1.75 5.125 2 3.687-9.126-6.937-2.25-.75 3.75-4.625 3.876z"/><path fill="#C3997F" d="m652.75 107.5-2.124 5.125 20.5-1L678 95.5l-3.374-6.25 1.124-5.625-3.063-.937.563-8.063-4.083-4.792-20.791 8.917 4.374 28.75z"/><path fill="#8E6C5A" d="m641.625 98-10.959.333 14.584 4.041 5.375 10.25L668.5 105.5l-4.668-2-22.207-5.5z"/><path fill="#585B5C" d="m651.874 57.374.876-.624 11-4.75 15.5 10.624-10.084 7.209-17.166.791-.126-13.25z"/><path fill="#757778" d="m643.75 60.126 1-6.75 19-1.376-13.125 16.876-6.875-8.75z"/><path fill="#585B5C" d="m637.875 68.25-6.75-4.75 13.625-10.126 6.083 10.459-12.958 4.417z"/><path fill="#515152" d="m649.75 68-16.375 7.75-2.25-12.25 19.708.333L649.75 68z"/><path fill="#DEBDA6" d="m634.667 65.833-4 32.501 33.166 5.167 5.334-33.668-18.334-6-16.166 2z"/><path fill="#C3997F" d="m642.719 71.969.469-.469-4.656.719 7.146 12.351 3.666-2.976 1.678 4.37 10.916-9.839-3.125-1.875-4.281.157-2.814 3.89-4.155 3.266-.569-3.886-1.056-4.239-3.219-1.469z"/><path fill="#8E6C5A" d="m645.678 84.569 2.4 2.634 2.944-1.24-2.091-3.02-3.253 1.626z"/><path fill="#E8CAB8" d="M646.994 77.677c-.077.232-1.316 6.892-1.316 6.892l5.343 1.394.697-7.666-4.724-.62z"/><path fill="#8E6C5A" d="m641.883 88.054 12.526 1.975-7.143 5.305-5.383-7.28z"/><path fill="#FFF" d="m643.606 89.042 8.944 1.394-1.994 1.142-5.614-.736-1.336-1.8z"/><path fill="#3B3C3B" d="M643.993 77.367a1.742 1.742 0 1 1-3.485.001 1.742 1.742 0 0 1 3.485-.001zM658.804 79.109a1.742 1.742 0 1 1-3.484 0 1.742 1.742 0 0 1 3.484 0z"/><path fill="#585B5C" d="m646.313 71-7.532-.312-.25 1.531 7.407 1.219.375-2.438zM655 72.031l-.469 2.375 7.406 1.719.188-1.656L655 72.031z"/><path fill="#8E6C5A" d="m680 83.875-1.75-.625-.563 3.25L680 83.875z"/></g><g display="block"><path fill="#614A43" d="m570.813 100.875 2.562-3 5.813-6.375-13.688-6.625 1.563 13 3.75 3z"/><path fill="#846558" d="m565.25 94.75-6.625 21.126 2 10.25 10.75-3.626 2-24.624-8.125-3.126z"/><path fill="#58AAAB" d="m591 77.333 22.333 9.5-7.666 12.334-25.667 4.5 11-26.334z"/><path fill="#77CBCC" d="m567.833 72-3.166-6.5 29.5-5.667 19.166 27-24.833 9.334L567.833 72z"/><path fill="#449698" d="m559 74.5 21 29.168 8.5-7.5L564.667 65.5l-5.667 9z"/><path fill="#A38274" d="m568.938 96.234-3.688-1.484L560.5 86l7.166-9.834 2 2.5-3 5.5L569.5 89.5l-.562 6.734z"/><path fill="#DDDDDB" d="m578.376 73.375 11.25 16.062L606 83.064l-11.874-14.625-15.75 4.936z"/><path fill="#58AAAB" d="m576.281 68.844 3.375-1 .844-1.938 6-1.406 1.781 1 3.313-.562.687 1.687-14.906 4.125-1.094-1.906z"/><path fill="#47A1BA" d="m541.5 134.875 4.25-12 12.876-7.375 12.75 7-15.876 23.667-14-11.292z"/></g><g display="block"><path fill="#47A1BA" d="m520.75 134.875-13.624-.625-5.5 11.75 15.25 11.75 3.874-22.875zM545.5 142.833l10 3.333v27.959l-21.583-3.25-17.041-13.125 28.624-14.917z"/><path fill="#66C0D9" d="m545.75 122.874-31.287 5.857-6.839 5.519 9.25 23.5 38.626-11.583-9.75-23.293z"/></g><g display="block"><path fill="#585B5C" d="m503.044 79.285-13.589 3.769 8.679 18.841 19.413 5.596-4.111-24.78-10.392-3.426z"/><path fill="#515152" d="m506.927 68.437-11.876 6.509-5.596 8.108 19.528 6.395 20.782-11.762-22.838-9.25z"/><path fill="#585B5C" d="m537.531 62.613-4.683-3.654-26.607 1.37-11.19 14.617 21.947 1.519 20.533-13.852z"/><path fill="#757778" d="m544.725 72.662 5.254-9.707-17.13-3.996-15.851 17.506 27.727-3.803z"/><path fill="#585B5C" d="m543.583 76.544 6.594-5.523-.198-8.066-7.88 3.654 1.255 10.392"/><path fill="#614A43" d="m511.038 117.084-2.513 1.827-3.424-5.024 6.622-6.776-.685 9.973z"/><path fill="#846558" d="m525.426 80.313-8.429-3.848-8.015 12.983 2.284 12.105-2.513 1.142-3.197-4.568-7.423 3.769 6.966 11.99 4.111-1.827-.685 6.852 5.938 9.82 21.411.686-10.448-49.104z"/><path fill="#614A43" d="m536.161 110.46-7.757 9.292-8.002 3.955 15.473 5.709 4.625-18.499-4.339-.457z"/><path fill="#A38274" d="m550.177 71.022 9.659 37.536-31.432 11.194-11.406-43.287 25.101-9.855 8.078 4.412z"/><path fill="#846558" d="m529.401 84.223-3.761 2.01 7.11 2.71 5.705 5.691 2.347-2.983 3.201 1.875.584-5.368 3.542-6.525-3.894-.849-3.384 2.39-.14 1.967-2.352 4.669-1.898-3.022-2.412-2.176-4.648-.389z"/><path fill="#614A43" d="m539.798 91.16-1.343 3.474 3.613 2.036 1.935-3.144-4.205-2.366z"/><path fill="#AB8F84" d="m540.711 85.141 3.292 8.386-5.548 1.108-1.995-7.847 4.251-1.647z"/><path fill="#3B3C3B" d="M533.573 89.236a1.889 1.889 0 1 1-3.776.12 1.889 1.889 0 0 1 3.776-.12zm14.547-3.372a1.889 1.889 0 1 1-3.776.12 1.889 1.889 0 0 1 3.776-.12z"/><path fill="#614A43" d="m535.413 101.36 7.498-2.233 5.406-1.61-.414 6.411-3.641 1.299-3.474 1.24-5.375-5.107z"/><path fill="#FFF" d="m537.787 101.939 9.368-3.024-.129 2.119-7.859 2.453-1.38-1.548z"/><path fill="#585B5C" d="m533.226 82.022-7.995 2.305.41 1.906 8.409-1.621-.824-2.59zm14.232-2.286-7.13.707.524 2.731 7.278-1.541-.672-1.897z"/><path fill="#614A43" d="m502.131 104.027 2.853-1.561 2.113 5.102-4.966-3.541z"/></g></g></svg>